<svg enable-background="new 0 0 24 24" viewBox="0 0 24 24" xmlns="http://www.w3.org/2000/svg"><g id="Layer_1"><g id="Layer_2"/></g><g id="play"/><g id="pause"/><g id="stop"/><g id="next"/><g id="previous"/><g id="fast_forward"/><g id="previous_1_"/><g id="fast_15s"/><g id="backwards_10s"/><g id="fast_10s"/><g id="backwards_15s"/><g id="restart"/><g id="_x31_:2_Ratio"/><g id="HD"/><g id="FHD"/><g id="UHD"/><g id="_x34_k"/><g id="Fullscreen"/><g id="share_screen"/><g id="smart_device"/><g id="smart_device_1_"/><g id="library"/><g id="download"/><g id="history"/><g id="playlist"/><g id="humor"/><g id="movie"/><g id="add_movie"/><g id="add_device"/><g id="add_to_playlist"/><g id="clapper"/><g id="tv_series"/><g id="video_clip"/><g id="horror"/><g id="Documentary"/><g id="sci-fi"/><g id="Drama"/><g id="live"/><g id="survival"/><g id="Romance"/><g id="Triller"/><g id="Musical"/><g id="Superheroes"/><g id="science"/><g id="history_1_"/><g id="action"/><g id="tv_series_1_"/><g id="adventure"/><g id="kids"/><g id="best_movie"/><g id="actor"/><g id="sport"/><g id="Subtitle"/><g id="Layer_56"/><g id="Speed"/><g id="Timer"><path d="m16.7 5-2 2c-.4.4-.4 1 0 1.4.2.2.4.3.7.3s.5-.1.7-.3l2.7-2.8c.2-.2.3-.5.3-.7 0-.3-.1-.5-.3-.7l-2.8-2.5c-.4-.4-1-.3-1.4.1s-.3 1 .1 1.4z"/><path d="m8.4 21c1.2.5 2.4.8 3.6.8 1 0 2-.2 3-.5 2.6-.9 4.6-2.9 5.5-5.5.4-1 .5-2.2.5-3.3 0-.9-.2-1.8-.5-2.7-.2-.5-.8-.8-1.3-.6s-.8.8-.6 1.3c.2.7.4 1.4.4 2.1 0 .9-.1 1.8-.4 2.6-.7 2-2.3 3.6-4.3 4.3-1.7.6-3.5.5-5.1-.2-1.8-.8-3.1-2.2-3.8-4.1-1.3-3.7.6-7.7 4.3-9 .7-.3 1.5-.4 2.3-.4l-1.2 1.1c-.4.4-.4 1 0 1.4.2.2.5.3.7.3.3 0 .5-.1.7-.3l2.8-2.7c.2-.2.3-.5.3-.7s-.2-.5-.3-.7l-2.7-2.6c-.4-.4-1-.4-1.4 0s-.4 1 0 1.4l.8.7c-1 .1-1.8.3-2.7.6-4.7 1.7-7.1 6.8-5.5 11.5.8 2.3 2.6 4.2 4.9 5.2z"/><path d="m10.4 16v-5.7h-2.2v1.2h.8v4.5z"/><path d="m13.7 14.8c-.2 0-.4-.1-.5-.2s-.2-.2-.2-.4h-1.3c0 .3.1.6.3.9s.4.5.7.6.7.2 1.1.2c.6 0 1.1-.2 1.5-.5.4-.4.5-.8.5-1.5 0-.3-.1-.6-.2-.9s-.3-.5-.6-.7-.6-.3-1-.3c-.2 0-.4 0-.6.1s-.3.2-.4.3v-1.1h2.5v-1.2h-3.7v3.4h1.2c0-.1.1-.3.2-.3.1-.1.3-.1.4-.1.2 0 .4.1.6.2s.2.3.2.6-.1.5-.2.6c0 .3-.2.3-.5.3z"/></g></svg>