<svg enable-background="new 0 0 24 24" viewBox="0 0 24 24" xmlns="http://www.w3.org/2000/svg"><g id="Layer_1"><g id="Layer_2"/></g><g id="play"/><g id="pause"/><g id="stop"/><g id="next"/><g id="previous"/><g id="fast_forward"/><g id="previous_1_"/><g id="fast_15s"/><g id="backwards_10s"/><g id="fast_10s"/><g id="backwards_15s"/><g id="restart"/><g id="_x31_:2_Ratio"/><g id="HD"/><g id="FHD"/><g id="UHD"/><g id="_x34_k"/><g id="Fullscreen"/><g id="share_screen"/><g id="smart_device"/><g id="smart_device_1_"/><g id="library"/><g id="download"/><g id="history"/><g id="playlist"/><g id="humor"/><g id="movie"/><g id="add_movie"/><g id="add_device"/><g id="add_to_playlist"/><g id="clapper"/><g id="tv_series"/><g id="video_clip"/><g id="horror"/><g id="Documentary"/><g id="sci-fi"/><g id="Drama"/><g id="live"/><g id="survival"/><g id="Romance"/><g id="Triller"/><g id="Musical"/><g id="Superheroes"/><g id="science"/><g id="history_1_"/><g id="action"/><g id="tv_series_1_"/><g id="adventure"/><g id="kids"/><g id="best_movie"/><g id="actor"/><g id="sport"/><g id="Subtitle"/><g id="Layer_56"/><g id="Speed"/><g id="Timer"><path d="m7.3 5 2-1.8c.4-.4.4-1 .1-1.4-.4-.4-1-.5-1.4-.1l-2.8 2.5c-.2.2-.3.5-.3.7 0 .3.1.5.3.7l2.7 2.8c.2.2.5.3.7.3.3 0 .5-.1.7-.3.4-.4.4-1 0-1.4z"/><path d="m3.5 9.8c-.3.9-.5 1.8-.5 2.7 0 1.1.1 2.3.5 3.3.9 2.6 2.9 4.6 5.5 5.5 1 .3 2 .5 3 .5 1.2 0 2.5-.3 3.6-.8 2.3-1 4.1-2.9 4.9-5.2s.7-4.7-.4-6.9-2.8-3.8-5.1-4.6c-.9-.3-1.7-.5-2.6-.5l.8-.7c.4-.4.4-1 0-1.4s-1-.4-1.4 0l-2.8 2.5c-.1.2-.3.4-.3.7s.1.5.3.7l2.8 2.7c.2.2.4.3.7.3s.5-.1.7-.3c.4-.4.4-1 0-1.4l-1.2-1.1c.8 0 1.5.1 2.3.4 1.8.6 3.2 1.9 4 3.6s.9 3.6.3 5.4-2 3.3-3.8 4.1c-1.6.7-3.4.8-5.1.2-2-.7-3.6-2.3-4.3-4.3-.3-.9-.4-1.8-.4-2.7 0-.7.2-1.4.4-2.1.2-.5-.1-1.1-.6-1.3-.5-.1-1.1.2-1.3.7z"/><path d="m10.4 16v-5.7h-2.2v1.2h.8v4.5z"/><path d="m13.7 14.8c-.2 0-.4-.1-.5-.2s-.2-.2-.2-.4h-1.3c0 .3.1.6.3.9s.4.5.7.6.7.2 1.1.2c.6 0 1.1-.2 1.5-.5.4-.4.5-.8.5-1.5 0-.3-.1-.6-.2-.9s-.3-.5-.6-.7-.6-.3-1-.3c-.2 0-.4 0-.6.1s-.3.2-.4.3v-1.1h2.5v-1.2h-3.7v3.4h1.2c0-.1.1-.3.2-.3.1-.1.3-.1.4-.1.2 0 .4.1.6.2s.2.3.2.6-.1.5-.2.6c0 .3-.2.3-.5.3z"/></g></svg>