<svg fill="none" height="512" viewBox="0 0 24 24" width="512" xmlns="http://www.w3.org/2000/svg"><g fill="rgb(0,0,0)"><path clip-rule="evenodd" d="m15 3.38197v17.23603l-7.23607-3.618h-2.76393c-1.65685 0-3-1.3431-3-3v-4c0-1.65685 1.34315-3 3-3h2.76393zm-8 5.61803h-2c-.55228 0-1 .44771-1 1v4c0 .5523.44772 1 1 1h2zm2 6.382 4 2v-10.76397l-4 2z" fill-rule="evenodd"/><path d="m17.8444 17.8444c1.344-1.5725 2.1556-3.6137 2.1556-5.8444 0-2.23075-.8116-4.27194-2.1556-5.84441l-1.4198 1.41983c.9848 1.20589 1.5754 2.74628 1.5754 4.42458s-.5906 3.2187-1.5754 4.4246z"/><path d="m19.7782 19.7782-1.4142-1.4142c1.6286-1.6287 2.636-3.8787 2.636-6.364 0-2.48528-1.0074-4.73528-2.636-6.36396l1.4142-1.41422c1.9906 1.99061 3.2218 4.74061 3.2218 7.77818 0 3.0376-1.2312 5.7876-3.2218 7.7782z"/></g></svg>