<svg fill="none" height="512" viewBox="0 0 24 24" width="512" xmlns="http://www.w3.org/2000/svg"><g fill="rgb(0,0,0)"><path clip-rule="evenodd" d="m15 20.618v-17.23603l-7.23607 3.61803h-2.76393c-1.65685 0-3 1.34315-3 3v4c0 1.6569 1.34315 3 3 3h2.76393zm-10-11.618h2v6h-2c-.55228 0-1-.4477-1-1v-4c0-.55229.44772-1 1-1zm8 8.382-4-2v-6.76397l4-2z" fill-rule="evenodd"/><path d="m20 12c0 2.2307-.8116 4.2719-2.1556 5.8444l-1.4198-1.4198c.9848-1.2059 1.5754-2.7463 1.5754-4.4246s-.5906-3.21869-1.5754-4.42458l1.4198-1.41983c1.344 1.57247 2.1556 3.61366 2.1556 5.84441z"/></g></svg>