<svg fill="currentColor" height="512" viewBox="0 0 24 24" width="512" xmlns="http://www.w3.org/2000/svg"><g id="Heart"><path d="m20.1592 4.4c-2.3086-2.2842-5.75-1.5381-8.1592.3916-2.4082-1.9298-5.85-2.6764-8.1592-.3916a6.1809 6.1809 0 0 0 -.0068 8.7949l7.456 7.5093a1.0009 1.0009 0 0 0 1.42 0l7.4492-7.5034a6.1805 6.1805 0 0 0 0-8.8013zm-1.4131 7.3862-6.7461 6.7944-6.7529-6.8a4.1822 4.1822 0 0 1 0-5.9585 2.8817 2.8817 0 0 1 2.0869-.8162 5.9949 5.9949 0 0 1 3.9629 1.8341.9989.9989 0 0 0 1.4062 0c1.7393-1.72 4.4756-2.5737 6.05-1.0185a4.1817 4.1817 0 0 1 -.0068 5.9648z"/></g></svg>