<?xml version="1.0"?>
<svg xmlns="http://www.w3.org/2000/svg" viewBox="0 0 32 32"><g id="Layer"><path d="M27,7H26a2,2,0,0,0-2-2,11.05,11.05,0,0,0-8,3.45A11.05,11.05,0,0,0,8,5,2,2,0,0,0,6,7H5a3,3,0,0,0-3,3V24a3,3,0,0,0,3,3H27a3,3,0,0,0,3-3V10A3,3,0,0,0,27,7ZM24,7V21a11,11,0,0,0-7,2.53V10.36A9.06,9.06,0,0,1,24,7ZM8,7a9.06,9.06,0,0,1,7,3.36V23.53A11,11,0,0,0,8,21ZM4,24V10A1,1,0,0,1,5,9H6V21a2,2,0,0,0,2,2,9,9,0,0,1,5.64,2H5A1,1,0,0,1,4,24Zm24,0a1,1,0,0,1-1,1H18.36A9,9,0,0,1,24,23a2,2,0,0,0,2-2V9h1a1,1,0,0,1,1,1Z"/></g></svg>
