<svg fill="none" height="512" viewBox="0 0 24 24" width="512" xmlns="http://www.w3.org/2000/svg"><g fill="currentColor"><path clip-rule="evenodd" d="m15 20.618v-17.23603l-7.23607 3.61803h-2.76393c-1.65685 0-3 1.34315-3 3v4c0 1.6569 1.34315 3 3 3h2.76393zm-10-11.618h2v6h-2c-.55228 0-1-.4477-1-1v-4c0-.55229.44772-1 1-1zm8 8.382-4-2v-6.76397l4-2z" fill-rule="evenodd"/><path d="m16.2929 10.7071 1.2929 1.2929-1.2929 1.2929 1.4142 1.4142 1.2929-1.2929 1.2929 1.2929 1.4142-1.4142-1.2929-1.2929 1.2929-1.2929-1.4142-1.41421-1.2929 1.29291-1.2929-1.29291z"/></g></svg>