<svg height="512" viewBox="0 0 24 24" width="512" xmlns="http://www.w3.org/2000/svg"><g id="Setting"><path d="m21.2422 9.03-1.2922-.323.6855-1.1421a1 1 0 0 0 -.15-1.2216l-2.8283-2.8287a1 1 0 0 0 -1.2217-.15l-1.1425.6854-.323-1.2927a1 1 0 0 0 -.97-.7573h-4a1 1 0 0 0 -.97.7573l-.323 1.2927-1.1425-.6857a1 1 0 0 0 -1.2217.15l-2.8282 2.829a1 1 0 0 0 -.15 1.2216l.6854 1.1421-1.2922.323a1 1 0 0 0 -.7578.97v4a1 1 0 0 0 .7578.97l1.292.3228-.6855 1.1421a1 1 0 0 0 .15 1.2216l2.8282 2.8287a1 1 0 0 0 1.2217.15l1.1428-.6852.323 1.2927a1 1 0 0 0 .97.7573h4a1 1 0 0 0 .97-.7573l.323-1.2927 1.1425.6855a1 1 0 0 0 1.2217-.15l2.8282-2.8287a1 1 0 0 0 .15-1.2216l-.6854-1.1422 1.292-.3228a1 1 0 0 0 .758-.9702v-4a1 1 0 0 0 -.7578-.97zm-1.2422 4.1892-1.8437.461a1 1 0 0 0 -.6153 1.4848l.9785 1.63-1.7246 1.724-1.63-.978a.9995.9995 0 0 0 -1.4843.6148l-.4618 1.8442h-2.4375l-.462-1.8442a.9995.9995 0 0 0 -1.4843-.6148l-1.63.978-1.7245-1.7241.9785-1.63a1 1 0 0 0 -.6152-1.4849l-1.8438-.4608v-2.4384l1.8438-.461a1 1 0 0 0 .6152-1.4848l-.9785-1.63 1.7246-1.724 1.63.978a.9995.9995 0 0 0 1.4843-.6148l.4619-1.8442h2.4375l.4619 1.8442a.9995.9995 0 0 0 1.4843.6148l1.63-.978 1.725 1.7241-.9785 1.63a1 1 0 0 0 .6153 1.4848l1.8432.4609z"/><path d="m12 8a4 4 0 1 0 4 4 4.0042 4.0042 0 0 0 -4-4zm0 6a2 2 0 1 1 2-2 2.0023 2.0023 0 0 1 -2 2z"/></g></svg>