<svg fill="none" height="512" viewBox="0 0 24 24" width="512" xmlns="http://www.w3.org/2000/svg"><g clip-rule="evenodd" fill="currentColor" fill-rule="evenodd"><path d="m8.94868 11.4225c-.99697-2.99088-3.79597-5.00828-6.94868-5.00828v-2c4.01357 0 7.57685 2.56826 8.8461 6.37588l.2052.6158c.8901 2.6703 3.2166 4.5646 5.9487 4.94v-3.3459l4.4142 4.4142-4.4142 4.4142v-3.4677c-3.5956-.3863-6.6834-2.8343-7.84605-6.3224z"/><path d="m8.63076 14.2019c-1.19438 2.5473-3.76661 4.2123-6.63076 4.2123v2c3.23839 0 6.18362-1.672 7.8672-4.3179-.48256-.5727-.89923-1.2075-1.23644-1.8944zm8.36924-5.71941c-1.6858.23168-3.2172 1.04161-4.3519 2.25531-.2396-.4173-.4404-.86264-.5968-1.33191l-.2052-.6158-.0148-.04391c1.4241-1.25575 3.222-2.06929 5.1687-2.27848v-3.4677l4.4142 4.41421-4.4142 4.41419z"/></g></svg>